<svg id="Layer_1" data-name="Layer 1" xmlns="http://www.w3.org/2000/svg" viewBox="0 0 396.85 141.73"><defs><style>.cls-1{font-size:117.03px;letter-spacing:-0.07em;}.cls-1,.cls-2,.cls-3{fill:#1d1d1b;}.cls-1,.cls-2{font-family:TrebuchetMS-Bold, Trebuchet MS;font-weight:700;}.cls-2{font-size:48.94px;letter-spacing:-0.08em;}.cls-3{font-size:24.6px;font-family:TrebuchetMS, Trebuchet MS;letter-spacing:-0.07em;}.cls-4{fill:#3c3c3b;}.cls-5{fill:#ededed;}.cls-6{fill:#878787;}.cls-7{font-size:45.14px;fill:#e30613;font-family:Trattatello;letter-spacing:-0.09em;}.cls-8{letter-spacing:-0.08em;}.cls-9{letter-spacing:-0.1em;}</style></defs><text class="cls-1" transform="translate(124.69 94.21)">Music</text><text class="cls-2" transform="translate(205.14 135.56)">As Code</text><text class="cls-3" transform="translate(363.67 117.48)">®</text><path class="cls-4" d="M99.65,58.43V100c6.42-.06,12-3,14.81-7.27a3.89,3.89,0,0,0,1.8.42H117a3.88,3.88,0,0,0,2.88-1.21,3.53,3.53,0,0,0,1-2.43V49.85h-1.91a1.7,1.7,0,0,1-1.86-1.52v-.5c0-23.81-24-43.11-53.56-43.11S9.93,24,9.93,47.83c0,.17,0,.34,0,.5a1.7,1.7,0,0,1-1.86,1.52H6.17V89.51a3.52,3.52,0,0,0,1,2.43A3.92,3.92,0,0,0,10,93.15h.71a3.91,3.91,0,0,0,1.68-.35C15.25,97,20.8,99.94,27.2,100V58.43a19,19,0,0,0-12.62,4.7V51.31a3.22,3.22,0,0,0,2.89-2.59l0-.14v-.45C17.5,37.9,22.65,28.66,31,22S50.79,11.11,63.5,11.11,87.69,15.25,96,22s13.46,16,13.46,26.18v.31h0a3.17,3.17,0,0,0,2.93,2.86v12A18.84,18.84,0,0,0,99.65,58.43Z"/><path d="M41.7,126.44l-3.88,10.27H89.06l-3.89-10.27c10.27-3.85,14.35-21.27,14.35-21.27s7.18-35.81,7.18-62.94-43.05-29-43.05-29h-.42s-43,1.9-43,29,7.18,62.94,7.18,62.94S31.46,122.59,41.7,126.44Z"/><path class="cls-5" d="M90.34,45.06a2.62,2.62,0,1,0,2.59-2.51A2.55,2.55,0,0,0,90.34,45.06Z"/><path class="cls-5" d="M90.67,51.25A2.36,2.36,0,1,0,93,49,2.29,2.29,0,0,0,90.67,51.25Z"/><ellipse class="cls-5" cx="93.1" cy="57.42" rx="2.1" ry="1.98" transform="translate(-0.62 1.02) rotate(-0.62)"/><path class="cls-5" d="M91.33,63.64a1.84,1.84,0,1,0,1.81-1.75A1.78,1.78,0,0,0,91.33,63.64Z"/><ellipse class="cls-5" cx="93.23" cy="69.82" rx="1.57" ry="1.49" transform="translate(-0.75 1.02) rotate(-0.62)"/><path class="cls-5" d="M92,76a1.31,1.31,0,0,0,2.62,0A1.31,1.31,0,0,0,92,76Z"/><ellipse class="cls-5" cx="93.36" cy="82.21" rx="1.05" ry="0.99" transform="translate(-0.89 1.02) rotate(-0.62)"/><path class="cls-5" d="M92.65,88.41a.79.79,0,0,0,1.57,0,.78.78,0,0,0-.8-.74A.76.76,0,0,0,92.65,88.41Z"/><ellipse class="cls-5" cx="93.5" cy="94.6" rx="0.52" ry="0.5" transform="translate(-1.02 1.02) rotate(-0.62)"/><path class="cls-5" d="M83,45.14a2.62,2.62,0,1,0,2.59-2.51A2.55,2.55,0,0,0,83,45.14Z"/><path class="cls-5" d="M83.3,51.33a2.36,2.36,0,1,0,2.33-2.25A2.29,2.29,0,0,0,83.3,51.33Z"/><ellipse class="cls-5" cx="85.72" cy="57.5" rx="2.1" ry="1.98" transform="translate(-0.62 0.94) rotate(-0.62)"/><path class="cls-6" d="M84,63.72a1.84,1.84,0,0,0,3.68,0,1.84,1.84,0,0,0-3.68,0Z"/><ellipse class="cls-6" cx="85.86" cy="69.9" rx="1.57" ry="1.49" transform="translate(-0.76 0.94) rotate(-0.62)"/><path class="cls-6" d="M84.61,76.11a1.32,1.32,0,1,0,1.3-1.26A1.28,1.28,0,0,0,84.61,76.11Z"/><ellipse class="cls-6" cx="85.99" cy="82.29" rx="1.05" ry="0.99" transform="matrix(1, -0.01, 0.01, 1, -0.89, 0.94)"/><path class="cls-6" d="M85.27,88.49a.79.79,0,1,0,.78-.75A.78.78,0,0,0,85.27,88.49Z"/><ellipse class="cls-6" cx="86.13" cy="94.68" rx="0.52" ry="0.5" transform="translate(-1.03 0.94) rotate(-0.62)"/><path class="cls-5" d="M75.59,45.22a2.63,2.63,0,1,0,2.6-2.51A2.56,2.56,0,0,0,75.59,45.22Z"/><path class="cls-5" d="M75.92,51.41a2.36,2.36,0,1,0,2.34-2.25A2.3,2.3,0,0,0,75.92,51.41Z"/><ellipse class="cls-5" cx="78.35" cy="57.58" rx="2.1" ry="1.98" transform="translate(-0.62 0.86) rotate(-0.62)"/><path class="cls-6" d="M76.58,63.8a1.84,1.84,0,1,0,1.82-1.75A1.78,1.78,0,0,0,76.58,63.8Z"/><ellipse class="cls-6" cx="78.49" cy="69.98" rx="1.57" ry="1.49" transform="translate(-0.76 0.86) rotate(-0.62)"/><path class="cls-6" d="M77.24,76.19a1.31,1.31,0,1,0,1.3-1.26A1.28,1.28,0,0,0,77.24,76.19Z"/><ellipse class="cls-6" cx="78.62" cy="82.37" rx="1.05" ry="0.99" transform="translate(-0.89 0.86) rotate(-0.62)"/><path class="cls-6" d="M77.9,88.57a.79.79,0,1,0,.78-.75A.78.78,0,0,0,77.9,88.57Z"/><ellipse class="cls-6" cx="78.76" cy="94.76" rx="0.52" ry="0.5" transform="translate(-1.03 0.86) rotate(-0.62)"/><path class="cls-5" d="M68.22,45.3a2.63,2.63,0,1,0,2.6-2.51A2.56,2.56,0,0,0,68.22,45.3Z"/><path class="cls-5" d="M68.55,51.49a2.36,2.36,0,1,0,2.34-2.25A2.31,2.31,0,0,0,68.55,51.49Z"/><path class="cls-5" d="M68.88,57.69a2.1,2.1,0,1,0,2.08-2A2,2,0,0,0,68.88,57.69Z"/><path class="cls-5" d="M69.21,63.88A1.84,1.84,0,1,0,71,62.13,1.78,1.78,0,0,0,69.21,63.88Z"/><path class="cls-5" d="M69.54,70.07a1.58,1.58,0,1,0,1.56-1.5A1.53,1.53,0,0,0,69.54,70.07Z"/><path class="cls-5" d="M69.87,76.27A1.31,1.31,0,1,0,71.17,75,1.27,1.27,0,0,0,69.87,76.27Z"/><path class="cls-6" d="M70.2,82.46a1,1,0,0,0,1.06,1,1,1,0,0,0,1-1,1.05,1.05,0,0,0-2.1,0Z"/><path class="cls-6" d="M70.53,88.65a.79.79,0,1,0,.78-.75A.77.77,0,0,0,70.53,88.65Z"/><path class="cls-6" d="M70.86,94.85a.51.51,0,0,0,.53.49.52.52,0,0,0,.52-.5.5.5,0,0,0-.53-.49A.51.51,0,0,0,70.86,94.85Z"/><path class="cls-5" d="M60.85,45.38a2.62,2.62,0,1,0,2.6-2.51A2.55,2.55,0,0,0,60.85,45.38Z"/><path class="cls-5" d="M61.18,51.57a2.36,2.36,0,1,0,2.34-2.25A2.3,2.3,0,0,0,61.18,51.57Z"/><ellipse class="cls-5" cx="63.61" cy="57.74" rx="2.1" ry="1.98" transform="translate(-0.62 0.7) rotate(-0.62)"/><path class="cls-5" d="M61.84,64a1.84,1.84,0,1,0,1.82-1.75A1.78,1.78,0,0,0,61.84,64Z"/><ellipse class="cls-5" cx="63.74" cy="70.14" rx="1.57" ry="1.49" transform="translate(-0.76 0.7) rotate(-0.62)"/><path class="cls-5" d="M62.5,76.35a1.31,1.31,0,1,0,1.3-1.26A1.27,1.27,0,0,0,62.5,76.35Z"/><ellipse class="cls-5" cx="63.88" cy="82.53" rx="1.05" ry="0.99" transform="translate(-0.89 0.7) rotate(-0.62)"/><path class="cls-5" d="M63.16,88.73a.79.79,0,1,0,.78-.75A.77.77,0,0,0,63.16,88.73Z"/><ellipse class="cls-5" cx="64.01" cy="94.92" rx="0.52" ry="0.5" transform="translate(-1.03 0.7) rotate(-0.62)"/><path class="cls-5" d="M53.48,45.46A2.62,2.62,0,1,0,56.07,43,2.55,2.55,0,0,0,53.48,45.46Z"/><path class="cls-5" d="M53.81,51.65a2.36,2.36,0,1,0,2.33-2.25A2.3,2.3,0,0,0,53.81,51.65Z"/><ellipse class="cls-5" cx="56.24" cy="57.82" rx="2.1" ry="1.98" transform="translate(-0.63 0.62) rotate(-0.62)"/><path class="cls-6" d="M54.47,64a1.84,1.84,0,1,0,1.81-1.75A1.78,1.78,0,0,0,54.47,64Z"/><ellipse class="cls-6" cx="56.37" cy="70.22" rx="1.57" ry="1.49" transform="translate(-0.76 0.62) rotate(-0.62)"/><path class="cls-6" d="M55.13,76.43a1.31,1.31,0,1,0,1.29-1.25A1.27,1.27,0,0,0,55.13,76.43Z"/><ellipse class="cls-6" cx="56.5" cy="82.61" rx="1.05" ry="0.99" transform="translate(-0.9 0.62) rotate(-0.62)"/><path class="cls-6" d="M55.79,88.81a.79.79,0,0,0,1.57,0,.78.78,0,0,0-.8-.74A.76.76,0,0,0,55.79,88.81Z"/><ellipse class="cls-6" cx="56.64" cy="95" rx="0.52" ry="0.5" transform="matrix(1, -0.01, 0.01, 1, -1.03, 0.62)"/><path class="cls-5" d="M46.11,45.54A2.62,2.62,0,1,0,48.7,43,2.55,2.55,0,0,0,46.11,45.54Z"/><path class="cls-6" d="M46.44,51.73a2.36,2.36,0,1,0,2.33-2.25A2.3,2.3,0,0,0,46.44,51.73Z"/><ellipse class="cls-6" cx="48.86" cy="57.9" rx="2.1" ry="1.98" transform="matrix(1, -0.01, 0.01, 1, -0.63, 0.54)"/><path class="cls-6" d="M47.09,64.12a1.84,1.84,0,1,0,1.82-1.75A1.8,1.8,0,0,0,47.09,64.12Z"/><ellipse class="cls-6" cx="49" cy="70.3" rx="1.57" ry="1.49" transform="translate(-0.76 0.54) rotate(-0.62)"/><path class="cls-6" d="M47.75,76.51a1.32,1.32,0,1,0,1.3-1.25A1.28,1.28,0,0,0,47.75,76.51Z"/><ellipse class="cls-6" cx="49.13" cy="82.69" rx="1.05" ry="0.99" transform="translate(-0.9 0.54) rotate(-0.62)"/><path class="cls-6" d="M48.41,88.89a.79.79,0,1,0,.78-.75A.77.77,0,0,0,48.41,88.89Z"/><ellipse class="cls-6" cx="49.27" cy="95.08" rx="0.52" ry="0.5" transform="translate(-1.03 0.54) rotate(-0.62)"/><path class="cls-5" d="M38.73,45.62a2.63,2.63,0,1,0,2.6-2.5A2.56,2.56,0,0,0,38.73,45.62Z"/><path class="cls-6" d="M39.06,51.81a2.36,2.36,0,1,0,2.34-2.25A2.31,2.31,0,0,0,39.06,51.81Z"/><ellipse class="cls-6" cx="41.49" cy="57.98" rx="2.1" ry="1.98" transform="translate(-0.63 0.46) rotate(-0.62)"/><path class="cls-6" d="M39.72,64.2a1.84,1.84,0,1,0,1.82-1.75A1.78,1.78,0,0,0,39.72,64.2Z"/><ellipse class="cls-6" cx="41.63" cy="70.38" rx="1.57" ry="1.49" transform="translate(-0.76 0.46) rotate(-0.62)"/><path class="cls-6" d="M40.38,76.59a1.31,1.31,0,1,0,1.3-1.25A1.28,1.28,0,0,0,40.38,76.59Z"/><ellipse class="cls-6" cx="41.76" cy="82.77" rx="1.05" ry="0.99" transform="translate(-0.9 0.46) rotate(-0.62)"/><path class="cls-6" d="M41,89a.79.79,0,0,0,1.58,0,.79.79,0,0,0-.8-.74A.78.78,0,0,0,41,89Z"/><ellipse class="cls-6" cx="41.9" cy="95.16" rx="0.52" ry="0.5" transform="matrix(1, -0.01, 0.01, 1, -1.03, 0.46)"/><path class="cls-5" d="M31.36,45.7A2.63,2.63,0,1,0,34,43.2,2.56,2.56,0,0,0,31.36,45.7Z"/><path class="cls-5" d="M31.69,51.89A2.36,2.36,0,1,0,34,49.64,2.31,2.31,0,0,0,31.69,51.89Z"/><ellipse class="cls-5" cx="34.12" cy="58.06" rx="2.1" ry="1.98" transform="translate(-0.63 0.37) rotate(-0.62)"/><path class="cls-5" d="M32.35,64.28a1.84,1.84,0,1,0,1.82-1.75A1.78,1.78,0,0,0,32.35,64.28Z"/><ellipse class="cls-5" cx="34.25" cy="70.46" rx="1.57" ry="1.49" transform="translate(-0.77 0.38) rotate(-0.62)"/><path class="cls-5" d="M33,76.67a1.31,1.31,0,1,0,1.3-1.25A1.27,1.27,0,0,0,33,76.67Z"/><ellipse class="cls-5" cx="34.39" cy="82.85" rx="1.05" ry="0.99" transform="translate(-0.9 0.38) rotate(-0.62)"/><path class="cls-6" d="M33.67,89.06a.79.79,0,0,0,1.57,0,.79.79,0,0,0-1.57,0Z"/><ellipse class="cls-6" cx="34.52" cy="95.24" rx="0.52" ry="0.5" transform="translate(-1.03 0.38) rotate(-0.62)"/><text class="cls-7" transform="matrix(1.33, -0.23, 0.17, 0.99, 88.34, 136.22)">B<tspan class="cls-8" x="17.42" y="0">E</tspan><tspan class="cls-9" x="35.97" y="0">T</tspan><tspan class="cls-8" x="61.34" y="0">A</tspan></text></svg>