<?xml version="1.0" encoding="iso-8859-1"?>
<!-- Generator: Adobe Illustrator 19.0.0, SVG Export Plug-In . SVG Version: 6.00 Build 0)  -->
<svg version="1.1" id="Capa_1" xmlns="http://www.w3.org/2000/svg" xmlns:xlink="http://www.w3.org/1999/xlink" x="0px" y="0px"
	 width="24px" height="24px" viewBox="0 0 260.215 260.215" style="enable-background:new 0 0 260.215 260.215;" xml:space="preserve">
<g>
	<path d="M260.215,172.181l-42.427-42.427l41.719-41.72L171.827,0.354l-41.719,41.719L88.389,0.354L0.707,88.034l41.72,41.72
		L0,172.181l87.682,87.681l42.426-42.426l42.426,42.426L260.215,172.181z M88.389,42.779l129.4,129.401l-45.255,45.255
		L43.133,88.034L88.389,42.779z"/>
	<path d="M116.437,101.583c-3.872,0-7.514,1.508-10.252,4.247c-5.654,5.653-5.654,14.853,0,20.506
		c2.738,2.739,6.38,4.247,10.252,4.247c3.873,0,7.515-1.508,10.253-4.247c5.654-5.653,5.654-14.853,0-20.506
		C123.951,103.091,120.31,101.583,116.437,101.583z"/>
	<path d="M146.843,131.989c-3.873,0-7.515,1.508-10.253,4.247c-5.653,5.653-5.653,14.852,0,20.505
		c2.738,2.739,6.38,4.247,10.253,4.247s7.515-1.508,10.253-4.247c5.653-5.653,5.653-14.852,0-20.505
		C154.357,133.497,150.716,131.989,146.843,131.989z"/>
</g>
</svg>
